<?xml version="1.0" encoding="utf-8"?>
<!-- Generator: Adobe Illustrator 16.0.0, SVG Export Plug-In . SVG Version: 6.00 Build 0)  -->
<!DOCTYPE svg PUBLIC "-//W3C//DTD SVG 1.1//EN" "http://www.w3.org/Graphics/SVG/1.1/DTD/svg11.dtd">
<svg version="1.1" id="Layer_1" xmlns="http://www.w3.org/2000/svg" xmlns:xlink="http://www.w3.org/1999/xlink" x="0px" y="0px"
	 width="1200px" height="300px" viewBox="0 0 1200 300" enable-background="new 0 0 1200 300" xml:space="preserve">
<g>
	<g>
		<g>
			<g>
				<g>
					<path fill="#75D1DF" d="M373.248,100.075c-14.052,0-25.721,4.543-34.681,13.503c-8.875,8.875-13.375,20.5-13.375,34.553
						c0,14.054,4.543,25.723,13.502,34.68c8.876,8.876,20.501,13.376,34.553,13.376c14.052,0,25.72-4.543,34.676-13.499
						c8.962-8.877,13.507-20.503,13.507-34.557c0-14.051-4.543-25.719-13.512-34.689
						C398.874,104.572,387.209,100.075,373.248,100.075z M373.248,188.363c-11.733,0-21.497-3.815-29.02-11.34
						c-7.44-7.438-11.213-17.159-11.213-28.893c0-11.731,3.815-21.495,11.34-29.021c7.524-7.524,17.246-11.34,28.893-11.34
						c11.814,0,21.621,3.815,29.147,11.34c7.44,7.442,11.213,17.206,11.213,29.021c0,11.9-3.772,21.707-11.203,29.137
						C394.877,184.63,385.067,188.363,373.248,188.363z"/>
					<path fill="#75D1DF" d="M459.878,138.932c-8.157,0-14.989,2.847-20.358,8.473v-7.708h-7.823v79.932h7.823v-32.386
						c5.55,5.685,12.383,8.562,20.358,8.562c7.965,0,14.79-2.785,20.284-8.279c5.409-5.409,8.152-12.19,8.152-20.156
						c0-7.963-2.786-14.788-8.28-20.284C474.624,141.674,467.842,138.932,459.878,138.932z M459.878,188.108
						c-5.724,0-10.508-2.001-14.624-6.116c-4.116-4.117-6.117-8.9-6.117-14.624c0-5.81,2.001-10.635,6.117-14.752
						c4.031-4.029,8.814-5.988,14.624-5.988c5.725,0,10.508,2.001,14.624,6.116c4.116,4.116,6.117,8.899,6.117,14.624
						c0,5.81-2.001,10.634-6.117,14.751C470.471,186.149,465.688,188.108,459.878,188.108z"/>
					<path fill="#75D1DF" d="M542.053,146.424c-5.323-5.056-12.139-7.619-20.26-7.619c-8.219,0-15.129,2.742-20.539,8.152
						c-5.325,5.324-8.024,12.191-8.024,20.411c0,8.137,2.743,15.004,8.145,20.403c5.325,5.415,12.195,8.16,20.419,8.16
						c3.425,0,6.56-0.449,9.315-1.336c7.184-2.307,12.581-6.806,16.041-13.372l0.64-1.215l-7.005-3.218l-0.604,0.978
						c-2.728,4.412-5.825,7.368-9.199,8.781c-2.713,1.118-5.805,1.686-9.188,1.686c-6.561,0-11.771-2.006-15.477-5.95
						c-3.345-3.64-5.147-8.602-5.368-14.764h49.281v-1.3C550.229,158.155,547.476,151.491,542.053,146.424z M521.793,146.5
						c4.875,0,9.248,1.375,13.003,4.09c3.46,2.473,5.649,5.547,6.658,9.363h-39.239C505.627,150.905,512.048,146.5,521.793,146.5z"
						/>
					<path fill="#75D1DF" d="M597.399,145.078c-3.724-3.994-9.102-6.019-15.984-6.019c-6.19,0-10.832,1.472-13.861,4.384v-3.747
						h-7.823v55.216h7.823v-33.277c0-4.653,1.215-8.345,3.624-10.987c2.312-2.619,5.661-3.893,10.237-3.893
						c9.241,0,13.733,5.034,13.733,15.39v32.768h7.823v-33.277C602.972,154.619,601.097,149.049,597.399,145.078z"/>
				</g>
				<g>
					<polygon fill="#858D9C" points="626.984,101.998 620.078,101.998 620.078,194.263 655.154,194.263 655.154,187.738 
						626.984,187.738 					"/>
					<path fill="#858D9C" d="M671.941,122.51l-0.116,0.011c-3.915,0.712-4.737,3.027-4.735,4.887
						c0.094,1.428,0.586,2.597,1.532,3.534c1.129,0.848,2.246,1.277,3.319,1.277c3.176,0,4.855-1.679,4.855-4.854l-0.019-0.153
						C676.02,124.092,674.393,122.51,671.941,122.51z"/>
					<rect x="668.615" y="140.346" fill="#858D9C" width="6.525" height="53.917"/>
					<polygon fill="#858D9C" points="701.994,117.286 694.949,117.286 694.949,140.346 687.102,140.346 687.102,146.87 
						694.949,146.87 694.949,194.263 701.994,194.263 701.994,146.87 715.449,146.87 715.449,140.346 701.994,140.346 					"/>
					<path fill="#858D9C" d="M769.85,146.895c-5.196-4.937-11.862-7.44-19.813-7.44c-8.04,0-14.796,2.679-20.079,7.962
						c-5.198,5.199-7.835,11.912-7.835,19.952c0,7.958,2.679,14.671,7.958,19.948c5.198,5.285,11.912,7.966,19.956,7.966
						c3.358,0,6.426-0.439,9.116-1.306c7.019-2.253,12.288-6.646,15.664-13.057l0.319-0.607l-5.858-2.69l-0.302,0.488
						c-2.802,4.531-6.001,7.573-9.506,9.041c-2.79,1.15-5.964,1.733-9.434,1.733c-6.747,0-12.117-2.074-15.957-6.159
						c-3.574-3.893-5.441-9.224-5.556-15.854h49.3v-0.65C777.824,158.342,775.14,151.839,769.85,146.895z M750.037,145.851
						c5.014,0,9.515,1.416,13.382,4.21c3.777,2.7,6.164,6.244,7.104,10.542h-40.988
						C732.957,150.679,739.673,145.851,750.037,145.851z"/>
					<path fill="#858D9C" d="M822.099,146.108c-2.905-1.75-6.4-3.541-10.385-5.322c-6.292-2.851-10.532-5.136-12.584-6.779
						c-3.57-3.082-5.38-6.731-5.38-10.847c0-4.615,1.721-8.391,5.119-11.225c3.177-2.688,7.236-4.05,12.066-4.05
						c4.606,0,8.391,0.909,11.271,2.717c2.27,1.298,4.248,3.322,5.883,6.015l0.295,0.486l6.142-2.679l-0.346-0.625
						c-4.519-8.169-12.34-12.312-23.244-12.312c-6.588,0-12.22,2.027-16.729,6.016c-4.632,3.933-6.981,9.2-6.981,15.656
						c0,6.453,2.305,11.719,6.84,15.643c2.671,2.413,7.701,5.28,14.951,8.521c3.771,1.677,6.927,3.212,9.377,4.562
						c2.401,1.326,4.201,2.538,5.361,3.611c4.335,3.847,6.533,8.741,6.533,14.547c0,6.144-1.854,10.864-5.509,14.032
						c-3.598,3.107-8.641,4.683-14.989,4.683c-11.242,0-18.121-5.178-21.031-15.828l-0.183-0.668l-6.474,2.211l0.183,0.601
						c4.066,13.409,13.32,20.209,27.505,20.209c4.553,0,8.57-0.613,11.948-1.826c10.002-3.738,15.073-11.615,15.073-23.413
						c0-7.364-2.552-13.606-7.579-18.551C827.424,149.686,825.024,147.874,822.099,146.108z"/>
					<path fill="#858D9C" d="M876.289,139.581c-8.545,0-15.604,3.199-21.008,9.513v-8.748h-6.523v78.633h6.523v-33.391
						c5.616,6.35,12.675,9.566,21.008,9.566c7.786,0,14.456-2.722,19.825-8.089c5.283-5.283,7.962-11.91,7.962-19.697
						c0-7.785-2.722-14.455-8.089-19.825C890.702,142.26,884.074,139.581,876.289,139.581z M876.289,188.758
						c-5.823,0-10.897-2.121-15.083-6.307c-4.185-4.184-6.306-9.259-6.306-15.083c0-5.909,2.121-11.027,6.306-15.211
						c4.101-4.101,9.176-6.179,15.083-6.179c5.824,0,10.898,2.121,15.083,6.307c4.186,4.185,6.308,9.259,6.308,15.083
						c0,5.907-2.122,11.024-6.308,15.21C887.271,186.679,882.197,188.758,876.289,188.758z"/>
					<path fill="#858D9C" d="M958.016,146.895c-5.196-4.937-11.862-7.44-19.813-7.44c-8.04,0-14.796,2.679-20.079,7.962
						c-5.197,5.198-7.833,11.911-7.833,19.952c0,7.957,2.679,14.67,7.957,19.948c5.199,5.285,11.913,7.966,19.955,7.966
						c3.358,0,6.426-0.439,9.118-1.306c7.016-2.252,12.286-6.645,15.664-13.057l0.319-0.607l-5.86-2.69l-0.302,0.488
						c-2.799,4.529-5.997,7.572-9.504,9.041c-2.792,1.15-5.967,1.733-9.436,1.733c-6.747,0-12.117-2.074-15.955-6.159
						c-3.574-3.891-5.441-9.222-5.556-15.854h49.298v-0.65C965.99,158.342,963.306,151.839,958.016,146.895z M938.203,145.851
						c5.016,0,9.517,1.416,13.382,4.21c3.778,2.701,6.166,6.245,7.105,10.542H917.7
						C921.125,150.679,927.841,145.851,938.203,145.851z"/>
					<path fill="#858D9C" d="M1025.408,146.895c-5.196-4.937-11.862-7.44-19.813-7.44c-8.04,0-14.796,2.679-20.079,7.962
						c-5.198,5.199-7.835,11.912-7.835,19.952c0,7.958,2.679,14.671,7.958,19.948c5.198,5.285,11.912,7.966,19.956,7.966
						c3.358,0,6.426-0.439,9.116-1.306c7.019-2.253,12.288-6.646,15.664-13.057l0.319-0.607l-5.858-2.69l-0.302,0.488
						c-2.802,4.531-6.001,7.573-9.506,9.041c-2.79,1.15-5.964,1.733-9.434,1.733c-6.747,0-12.117-2.074-15.957-6.159
						c-3.574-3.893-5.441-9.224-5.556-15.854h49.3v-0.65C1033.383,158.342,1030.698,151.839,1025.408,146.895z M1005.596,145.851
						c5.014,0,9.515,1.416,13.382,4.21c3.777,2.7,6.164,6.244,7.104,10.542h-40.988
						C988.516,150.679,995.231,145.851,1005.596,145.851z"/>
					<path fill="#858D9C" d="M1089.793,98.686v50.161c-5.752-6.149-12.727-9.266-20.754-9.266c-7.787,0-14.457,2.723-19.823,8.09
						c-5.283,5.283-7.962,11.91-7.962,19.697c0,7.79,2.722,14.46,8.089,19.824c5.281,5.283,11.908,7.962,19.696,7.962
						c8.245,0,15.219-3.099,20.754-9.215v8.323h6.523V98.686H1089.793z M1069.039,188.758c-5.823,0-10.897-2.121-15.083-6.307
						c-4.185-4.186-6.306-9.261-6.306-15.083c0-5.907,2.121-11.025,6.306-15.211c4.101-4.101,9.176-6.179,15.083-6.179
						c5.824,0,10.898,2.121,15.083,6.307c4.186,4.185,6.308,9.259,6.308,15.083c0,5.907-2.122,11.024-6.308,15.21
						C1080.021,186.679,1074.947,188.758,1069.039,188.758z"/>
				</g>
			</g>
		</g>
	</g>
	<g>
		<path fill="#75D1DF" d="M268.842,93.872c-0.277-0.378-0.708-0.611-1.17-0.649c-0.464-0.036-0.918,0.134-1.252,0.462l-7.559,7.535
			c-0.551,0.55-0.624,1.421-0.178,2.06c9.756,13.781,14.913,29.933,14.913,46.724c0,44.87-36.567,81.385-81.515,81.385
			c-3.123,0-6.362-0.227-10.192-0.704c-0.235-0.029-1.259-0.188-1.903-0.293c-3.207-0.491-6.163-1.104-9.047-1.871
			c0,0-0.457-0.115-0.554-0.148c-0.027-0.004-0.053-0.013-0.079-0.024c-3.641-1.023-7.183-2.285-10.55-3.762
			c-3.361-1.455-6.73-3.227-10.049-5.283l99.003-52.357c3.145-1.665,5.058-4.602,5.115-7.841c0.069-3.24-1.724-6.249-4.811-8.036
			l-34.003-19.678l50.312-50.313c3.615-3.604,3.33-6.854,2.462-8.924c-1.043-2.563-3.745-4.355-6.565-4.355
			c-1.521,0-2.93,0.409-4.712,1.365L135.73,133.03c-3.163,1.66-5.083,4.605-5.145,7.879c-0.046,3.255,1.775,6.248,4.863,8.006
			l34.061,19.598l-36.812,36.799c-2.048-2.215-3.983-4.544-5.766-6.938c-7.52-10.141-12.458-21.349-14.685-33.3
			c-0.031-0.169-0.063-0.344-0.082-0.514c-0.005-0.037-0.009-0.069-0.015-0.111l-0.047-0.248c-0.335-1.972-0.702-4.259-0.917-6.54
			c-0.05-0.531-0.069-1.092-0.081-1.623c0-0.016,0-0.024-0.005-0.04l-0.118-2.069c-0.079-1.172-0.166-2.498-0.166-3.847
			c0-5.562,0.553-11.084,1.65-16.412c0.515-2.495,1.147-4.958,1.882-7.309c0.028-0.084,0.045-0.147,0.059-0.232
			c0.009-0.041,0.021-0.126,0.041-0.183c0,0,0-0.007,0.001-0.009c10.646-34.292,41.895-57.326,77.759-57.326
			c4.933,0,9.992,0.569,15.919,1.799l0.721,0.152c1.857,0.393,3.928,0.925,6.32,1.624c1.27,0.374,2.543,0.829,3.666,1.23
			l1.063,0.382c0.966,0.334,1.985,0.688,2.906,1.071c0.014,0.003,0.03,0.014,0.047,0.02c0.132,0.048,0.25,0.105,0.382,0.167
			l0.056,0.025c0.454,0.207,0.977,0.192,1.415-0.043l11.908-6.305c0.522-0.271,0.853-0.817,0.855-1.413
			c0-0.589-0.333-1.128-0.855-1.406c-13.642-7.243-28.994-11.07-44.402-11.07c-52.471,0-95.156,42.686-95.156,95.159
			c0,21.261,6.979,41.451,20.188,58.383c1.744,2.229,3.667,4.46,5.729,6.656l-3.882,3.885c-3.601,3.576-3.335,6.818-2.472,8.904
			c1.063,2.569,3.771,4.366,6.586,4.366c1.491,0,2.94-0.418,4.699-1.351l8.075-4.286c2.659,1.961,5.344,3.741,7.991,5.311
			c14.704,8.691,31.385,13.285,48.241,13.285c52.464,0,95.15-42.687,95.15-95.153C287.359,129.717,280.957,110.306,268.842,93.872z"
			/>
		<g>
			<path fill="#FFD633" d="M123.201,226.435c-0.47,0-1.091-0.391-1.262-0.8c-0.132-0.326-0.413-1.009,1.208-2.624l51.909-51.895
				c0.909-0.907,1.352-2.214,1.185-3.492c-0.172-1.272-0.938-2.416-2.052-3.058l-35.868-20.635
				c-1.254-0.723-1.992-1.819-1.977-2.945c0.018-1.114,0.793-2.188,2.072-2.861l120.781-63.874c1.15-0.614,1.688-0.689,2.023-0.689
				c0.479,0,1.06,0.367,1.223,0.766c0.163,0.376,0.442,1.049-1.188,2.674l-51.79,51.794c-0.912,0.904-1.353,2.208-1.186,3.482
				c0.166,1.276,0.932,2.413,2.042,3.059l35.806,20.721c1.237,0.715,1.961,1.809,1.935,2.92c-0.018,1.138-0.788,2.208-2.053,2.886
				l-120.801,63.895C124.067,226.363,123.538,226.435,123.201,226.435z"/>
		</g>
	</g>
</g>
<g>
	<g>
		<path fill="#75D1DF" d="M1228.109,451.238c-17.633,0-32.275,5.709-43.52,16.957c-11.143,11.137-16.793,25.723-16.793,43.357
			c0,17.639,5.701,32.283,16.949,43.523c11.143,11.143,25.734,16.799,43.363,16.799c17.635,0,32.277-5.707,43.52-16.949
			c11.25-11.145,16.955-25.74,16.955-43.373c0-17.627-5.701-32.266-16.963-43.539
			C1260.266,456.885,1245.627,451.238,1228.109,451.238z M1228.109,561.5c-14.566,0-26.688-4.738-36.027-14.072
			c-9.232-9.232-13.912-21.301-13.912-35.875c0-14.564,4.734-26.688,14.072-36.025s21.406-14.068,35.867-14.068
			c14.674,0,26.85,4.73,36.188,14.068c9.234,9.234,13.918,21.355,13.918,36.025c0,14.783-4.684,26.957-13.902,36.176
			C1254.973,556.863,1242.793,561.5,1228.109,561.5z"/>
		<path fill="#75D1DF" d="M1336.299,499.77c-10.014,0-18.443,3.406-25.121,10.135v-9.18h-10.373v100.424h10.373v-40.02
			c6.891,6.813,15.318,10.266,25.121,10.266c10.033,0,18.625-3.514,25.543-10.432c6.814-6.813,10.271-15.354,10.271-25.385
			c0-10.033-3.512-18.625-10.43-25.543C1354.873,503.223,1346.332,499.77,1336.299,499.77z M1336.299,561.182
			c-7.061,0-12.967-2.475-18.049-7.551c-5.08-5.082-7.551-10.986-7.551-18.053c0-7.176,2.471-13.129,7.551-18.205
			c4.977-4.977,10.879-7.393,18.049-7.393c7.063,0,12.969,2.467,18.051,7.551c5.08,5.082,7.551,10.984,7.551,18.047
			c0,7.174-2.471,13.127-7.551,18.213C1349.373,558.762,1343.471,561.182,1336.299,561.182z"/>
		<path fill="#75D1DF" d="M1413.621,499.604c-10.35,0-19.049,3.459-25.861,10.273c-6.713,6.707-10.113,15.354-10.113,25.701
			c0,10.25,3.455,18.896,10.26,25.695c6.711,6.818,15.361,10.277,25.715,10.277c4.307,0,8.25-0.563,11.723-1.678
			c9.051-2.908,15.85-8.58,20.207-16.85l0.947-1.799l-9.283-4.262l-0.893,1.451c-3.373,5.459-7.193,9.105-11.344,10.844
			c-3.357,1.383-7.174,2.08-11.357,2.08c-8.221,0-14.477-2.406-19.109-7.33c-4.068-4.438-6.289-10.461-6.607-17.936h61.529v-1.924
			c0-10.164-3.469-18.557-10.305-24.941C1432.426,502.836,1423.848,499.604,1413.621,499.604z M1413.621,509.822
			c6.021,0,11.422,1.693,16.061,5.045c4.146,2.965,6.813,6.629,8.098,11.152h-48.17
			C1393.861,515.125,1401.742,509.822,1413.621,509.822z"/>
		<path fill="#75D1DF" d="M1508.262,507.535c-4.715-5.051-11.502-7.607-20.184-7.607c-7.477,0-13.17,1.705-17.008,5.082v-4.285
			h-10.375v69.555h10.375V528.42c0-5.732,1.49-10.271,4.449-13.529c2.824-3.195,6.932-4.75,12.559-4.75
			c11.498,0,16.85,6.006,16.85,18.918v41.221h10.371V528.42C1515.299,519.584,1512.93,512.555,1508.262,507.535z"/>
	</g>
	<g>
		<path fill="#858D9C" d="M1296.805,730.234c-4.137,1.482-9.016,2.229-14.637,2.229c-17.396,0-28.586-8.221-33.57-24.662
			l6.521-2.225c3.713,13.576,12.729,20.361,27.049,20.361c8.166,0,14.586-2.014,19.25-6.043c4.775-4.137,7.162-10.182,7.162-18.139
			c0-7.529-2.814-13.789-8.436-18.775c-1.488-1.377-3.764-2.916-6.84-4.613c-3.08-1.695-7-3.607-11.771-5.727
			c-9.018-4.029-15.172-7.533-18.457-10.504c-5.518-4.768-8.275-11.08-8.275-18.932c0-7.848,2.813-14.16,8.434-18.932
			c5.516-4.877,12.305-7.318,20.367-7.318c13.359,0,22.801,4.984,28.316,14.955l-6.203,2.703c-2.121-3.5-4.668-6.098-7.635-7.797
			c-3.717-2.332-8.539-3.496-14.479-3.496c-6.262,0-11.457,1.746-15.594,5.25c-4.453,3.711-6.682,8.59-6.682,14.635
			c0,5.412,2.33,10.131,7,14.164c2.648,2.119,7.953,4.984,15.91,8.586c4.984,2.229,9.279,4.434,12.883,6.604
			c3.609,2.174,6.529,4.375,8.754,6.604c6.152,6.047,9.229,13.576,9.229,22.594C1315.102,716.184,1309,725.674,1296.805,730.234z"/>
		<path fill="#858D9C" d="M1385.426,722.438c-6.58,6.576-14.643,9.863-24.186,9.863c-10.924,0-19.939-4.453-27.047-13.363v43.117
			h-6.525V665.48h6.525v12.406c6.781-8.91,15.799-13.359,27.047-13.359c9.543,0,17.551,3.232,24.025,9.703
			c6.572,6.576,9.859,14.637,9.859,24.182C1395.125,707.959,1391.893,715.967,1385.426,722.438z M1380.65,679.002
			c-5.406-5.408-11.881-8.115-19.41-8.115c-7.639,0-14.105,2.656-19.414,7.957c-5.408,5.412-8.111,11.934-8.111,19.568
			c0,7.533,2.703,14.004,8.111,19.414c5.414,5.404,11.881,8.111,19.414,8.111c7.633,0,14.1-2.648,19.41-7.953
			c5.404-5.41,8.111-11.936,8.111-19.572C1388.762,690.883,1386.055,684.412,1380.65,679.002z"/>
		<path fill="#858D9C" d="M1406.9,696.98c0,8.91,2.383,15.965,7.158,21.16c4.986,5.305,11.828,7.957,20.521,7.957
			c4.459,0,8.49-0.742,12.092-2.229c4.563-1.906,8.648-5.779,12.258-11.613l5.885,2.703c-4.143,7.852-10.502,13.152-19.092,15.914
			c-3.293,1.057-7,1.59-11.143,1.59c-9.857,0-17.973-3.236-24.34-9.705c-6.467-6.469-9.701-14.584-9.701-24.346
			c0-9.863,3.18-17.979,9.541-24.342c6.467-6.467,14.643-9.703,24.5-9.703c9.762,0,17.82,3.02,24.182,9.066
			c6.473,6.047,9.707,13.895,9.707,23.547H1406.9z M1451.77,676.141c-4.994-3.605-10.717-5.41-17.189-5.41
			c-13.572,0-22.484,6.682-26.725,20.047h53.299C1460.094,684.73,1456.957,679.854,1451.77,676.141z"/>
		<path fill="#858D9C" d="M1487.08,696.98c0,8.91,2.393,15.965,7.16,21.16c4.982,5.305,11.826,7.957,20.529,7.957
			c4.449,0,8.479-0.742,12.088-2.229c4.561-1.906,8.641-5.779,12.25-11.613l5.889,2.703c-4.135,7.852-10.506,13.152-19.092,15.914
			c-3.285,1.057-7,1.59-11.135,1.59c-9.869,0-17.98-3.236-24.344-9.705c-6.473-6.469-9.707-14.584-9.707-24.346
			c0-9.863,3.182-17.979,9.543-24.342c6.473-6.467,14.639-9.703,24.508-9.703c9.75,0,17.82,3.02,24.182,9.066
			c6.467,6.047,9.707,13.895,9.707,23.547H1487.08z M1531.951,676.141c-4.986-3.605-10.717-5.41-17.182-5.41
			c-13.58,0-22.492,6.682-26.732,20.047h53.295C1540.273,684.73,1537.146,679.854,1531.951,676.141z"/>
		<path fill="#858D9C" d="M1616.746,731.188v-11.771c-7,8.59-15.91,12.885-26.73,12.885c-9.543,0-17.551-3.232-24.02-9.707
			c-6.578-6.572-9.863-14.635-9.863-24.182c0-9.545,3.234-17.555,9.699-24.025c6.58-6.574,14.641-9.859,24.184-9.859
			c10.506,0,19.418,4.293,26.73,12.885v-63.957h6.529v117.732H1616.746z M1609.434,679.002c-5.414-5.408-11.883-8.115-19.418-8.115
			c-7.633,0-14.105,2.656-19.408,7.957c-5.406,5.412-8.113,11.934-8.113,19.568c0,7.533,2.707,14.004,8.113,19.414
			c5.408,5.404,11.881,8.111,19.408,8.111c7.639,0,14.105-2.648,19.418-7.953c5.402-5.41,8.109-11.936,8.109-19.572
			C1617.543,690.883,1614.836,684.412,1609.434,679.002z"/>
		<g>
			<path fill="#858D9C" d="M1036.725,731.188V617.592h6.365v107.07h44.68v6.525H1036.725z"/>
			<path fill="#858D9C" d="M1102.432,653.705c-1.17,0-2.385-0.479-3.66-1.432c-0.957-0.949-1.486-2.225-1.59-3.814
				c0-2.867,1.75-4.617,5.25-5.254c2.648,0,4.398,1.748,5.25,5.254C1107.682,651.959,1105.928,653.705,1102.432,653.705z
				 M1099.09,731.188V665.48h6.523v65.707H1099.09z"/>
			<path fill="#858D9C" d="M1142.627,672.002v59.186h-6.521v-59.186h-16.994v-6.521h16.994V636.68h6.521v28.801h24.514v6.521
				H1142.627z"/>
			<path fill="#858D9C" d="M1179.326,696.98c0,8.91,2.389,15.965,7.16,21.16c4.982,5.305,11.826,7.957,20.525,7.957
				c4.453,0,8.482-0.742,12.09-2.229c4.563-1.906,8.643-5.779,12.252-11.613l5.889,2.703c-4.139,7.852-10.506,13.152-19.092,15.914
				c-3.287,1.057-7,1.59-11.139,1.59c-9.865,0-17.977-3.236-24.344-9.705c-6.469-6.469-9.703-14.584-9.703-24.346
				c0-9.863,3.182-17.975,9.543-24.338c6.471-6.471,14.639-9.707,24.504-9.707c9.754,0,17.82,3.02,24.182,9.066
				c6.471,6.051,9.707,13.895,9.707,23.547H1179.326z M1224.197,676.141c-4.99-3.605-10.717-5.41-17.186-5.41
				c-13.576,0-22.488,6.686-26.729,20.047h53.295C1232.52,684.73,1229.389,679.854,1224.197,676.141z"/>
		</g>
	</g>
</g>
</svg>
