<?xml version="1.0" encoding="utf-8"?>
<!-- Generator: Adobe Illustrator 16.0.0, SVG Export Plug-In . SVG Version: 6.00 Build 0)  -->
<!DOCTYPE svg PUBLIC "-//W3C//DTD SVG 1.1//EN" "http://www.w3.org/Graphics/SVG/1.1/DTD/svg11.dtd">
<svg version="1.1" id="Layer_1" xmlns="http://www.w3.org/2000/svg" xmlns:xlink="http://www.w3.org/1999/xlink" x="0px" y="0px"
	 width="1200px" height="300px" viewBox="0 0 1200 300" enable-background="new 0 0 1200 300" xml:space="preserve">
<path fill="#75D1DF" d="M245.469,90.722c-0.292-0.395-0.743-0.644-1.233-0.682c-0.492-0.039-0.972,0.141-1.322,0.488l-7.982,7.957
	c-0.584,0.581-0.662,1.5-0.187,2.173c10.301,14.554,15.746,31.614,15.746,49.341c0,47.392-38.616,85.948-86.083,85.948
	c-3.296,0-6.719-0.236-10.764-0.737c-0.246-0.033-1.33-0.203-2.008-0.313c-3.385-0.52-6.51-1.164-9.558-1.977
	c0,0-0.479-0.123-0.583-0.152c-0.028-0.01-0.056-0.02-0.083-0.026c-3.841-1.082-7.586-2.419-11.142-3.976
	c-3.548-1.535-7.108-3.408-10.61-5.578l104.551-55.291c3.323-1.765,5.343-4.862,5.4-8.281c0.078-3.428-1.819-6.6-5.077-8.487
	l-35.912-20.779l53.136-53.136c3.816-3.809,3.512-7.236,2.594-9.422c-1.099-2.71-3.95-4.603-6.93-4.603
	c-1.605,0-3.094,0.432-4.976,1.439l-127.547,67.448c-3.34,1.759-5.371,4.867-5.436,8.322c-0.046,3.439,1.878,6.604,5.138,8.458
	l35.966,20.696l-38.873,38.863c-2.162-2.34-4.206-4.801-6.089-7.332c-7.941-10.709-13.16-22.545-15.508-35.167
	c-0.032-0.177-0.064-0.36-0.086-0.543c-0.003-0.038-0.008-0.075-0.016-0.111l-0.049-0.264c-0.35-2.08-0.741-4.498-0.966-6.91
	c-0.055-0.563-0.073-1.155-0.088-1.715c0-0.013,0-0.024-0.001-0.038l-0.128-2.189c-0.083-1.234-0.176-2.634-0.176-4.058
	c0-5.877,0.588-11.711,1.747-17.338c0.541-2.632,1.21-5.229,1.989-7.72c0.029-0.087,0.044-0.151,0.057-0.242
	c0.009-0.043,0.026-0.132,0.042-0.19c0.001-0.004,0.002-0.009,0.003-0.013c11.245-36.211,44.246-60.539,82.117-60.539
	c5.212,0,10.555,0.604,16.813,1.9l0.757,0.158c1.964,0.416,4.15,0.978,6.678,1.717c1.341,0.393,2.684,0.875,3.87,1.301l1.123,0.402
	c1.02,0.351,2.095,0.726,3.068,1.132c0.017,0.005,0.034,0.014,0.051,0.021c0.138,0.053,0.267,0.112,0.402,0.174l0.061,0.029
	c0.477,0.218,1.029,0.203,1.494-0.044l12.576-6.656c0.553-0.291,0.899-0.866,0.9-1.492c0-0.625-0.346-1.199-0.899-1.492
	c-14.408-7.647-30.625-11.688-46.896-11.688c-55.411,0-100.492,45.078-100.492,100.49c0,22.459,7.375,43.78,21.324,61.657
	c1.839,2.355,3.872,4.715,6.05,7.031l-4.098,4.102c-3.806,3.781-3.521,7.201-2.611,9.406c1.123,2.715,3.982,4.609,6.954,4.609
	c1.576,0,3.107-0.439,4.962-1.429l8.53-4.521c2.806,2.067,5.639,3.949,8.436,5.604c15.529,9.18,33.146,14.031,50.944,14.031
	c55.408,0,100.485-45.082,100.485-100.492C265.023,128.577,258.261,108.08,245.469,90.722z"/>
<g>
	<path fill="#FFD633" d="M91.664,230.725c-0.495,0-1.154-0.42-1.332-0.849c-0.141-0.345-0.438-1.065,1.275-2.771l54.819-54.809
		c0.96-0.958,1.427-2.337,1.249-3.683c-0.177-1.347-0.987-2.556-2.164-3.232l-37.88-21.796c-1.327-0.756-2.105-1.916-2.089-3.105
		c0.021-1.179,0.841-2.313,2.189-3.023l127.554-67.45c1.215-0.648,1.778-0.733,2.134-0.733c0.505,0,1.123,0.386,1.295,0.811
		c0.167,0.398,0.465,1.107-1.257,2.824l-54.694,54.695c-0.958,0.959-1.426,2.333-1.25,3.678c0.176,1.347,0.983,2.555,2.156,3.233
		l37.814,21.878c1.306,0.758,2.07,1.91,2.042,3.088c-0.02,1.197-0.831,2.332-2.168,3.043L93.782,230.003
		C92.578,230.643,92.018,230.725,91.664,230.725z"/>
</g>
<g>
	<path fill="#75D1DF" d="M362.911,96.58c-15.15,0-27.729,4.897-37.388,14.554c-9.566,9.565-14.416,22.097-14.416,37.25
		s4.896,27.731,14.554,37.389c9.567,9.565,22.1,14.415,37.25,14.415s27.729-4.896,37.387-14.554
		c9.657-9.565,14.554-22.099,14.554-37.25c0-15.149-4.896-27.729-14.554-37.388C390.542,101.43,377.964,96.58,362.911,96.58z
		 M362.91,104.589c12.816,0,23.457,4.141,31.625,12.307c8.075,8.077,12.169,18.67,12.169,31.486
		c0,12.911-4.094,23.552-12.169,31.625c-8.162,7.983-18.802,12.032-31.625,12.032c-12.73,0-23.324-4.141-31.488-12.307
		c-8.075-8.071-12.169-18.619-12.169-31.35c0-12.728,4.141-23.321,12.307-31.487C339.726,108.729,350.274,104.589,362.91,104.589z"
		/>
	<path fill="#75D1DF" d="M605.157,145.189c-3.997-4.286-9.774-6.459-17.169-6.459c-6.811,0-11.901,1.669-15.143,4.962v-3.023v-0.75
		v-0.25v-0.25h-0.25h-0.25h-0.75h-5.647h-0.75h-0.25h-0.25v0.25v0.25v0.75v56.892v0.75v0.25v0.25h0.25h0.25h0.75h5.647h0.75h0.25
		h0.25v-0.25v-0.25v-0.75v-34.576c0-5.07,1.327-9.098,3.944-11.97c2.506-2.836,6.273-4.273,11.199-4.273
		c10.097,0,15.005,5.494,15.005,16.795v34.022v0.75v0.25v0.25h0.25h0.25h0.75h5.647h0.75h0.25h0.25v-0.25v-0.25v-0.75v-34.574
		C611.141,155.439,609.128,149.452,605.157,145.189z"/>
	<path fill="#75D1DF" d="M545.314,146.643c-5.719-5.433-13.051-8.189-21.792-8.189c-8.845,0-16.279,2.95-22.097,8.769
		c-5.727,5.728-8.631,13.117-8.631,21.96c0,8.755,2.951,16.143,8.77,21.959c5.722,5.818,13.111,8.77,21.96,8.77
		c3.69,0,7.063-0.483,10.026-1.437c7.725-2.479,13.53-7.318,17.253-14.384l0.369-0.7l0.123-0.233l0.123-0.233l-0.24-0.11l-0.24-0.11
		l-0.72-0.331l-5.098-2.342l-0.603-0.276l-0.201-0.092l-0.2-0.092L544,179.759l-0.116,0.188l-0.349,0.563
		c-2.967,4.801-6.34,8.018-10.027,9.563c-2.949,1.214-6.309,1.83-9.985,1.83c-7.138,0-12.811-2.185-16.86-6.492
		c-3.662-3.989-5.627-9.445-5.84-16.217h52.04h0.75h0.25h0.25v-0.25v-0.25v-0.75C554.113,159.268,551.153,152.102,545.314,146.643z
		 M502.13,161.32c3.692-9.995,10.694-14.856,21.394-14.856c5.302,0,10.062,1.496,14.145,4.446c3.773,2.698,6.232,6.199,7.313,10.41
		H502.13z"/>
	<path fill="#75D1DF" d="M456.579,138.594c-8.896,0-16.35,3.161-22.167,9.398v-7.321v-0.75v-0.25v-0.25h-0.25h-0.25h-0.75h-5.648
		h-0.75h-0.25h-0.25v0.25v0.25v0.75v83.614v0.75v0.25v0.25h0.25h0.25h0.75h5.648h0.75h0.25h0.25v-0.25v-0.25v-0.75v-33.997
		c6.019,6.297,13.474,9.487,22.167,9.487c8.57,0,15.912-2.997,21.821-8.907c5.819-5.82,8.77-13.115,8.77-21.683
		c0-8.569-2.997-15.911-8.907-21.822C472.443,141.544,465.148,138.594,456.579,138.594z M456.579,191.764
		c-6.146,0-11.503-2.24-15.922-6.658c-4.418-4.419-6.659-9.776-6.659-15.922c0-6.239,2.24-11.643,6.659-16.06
		c4.327-4.327,9.684-6.521,15.922-6.521c6.147,0,11.504,2.24,15.921,6.659c4.418,4.42,6.659,9.777,6.659,15.922
		c0,6.239-2.24,11.643-6.659,16.06C468.174,189.57,462.817,191.764,456.579,191.764z"/>
</g>
<g>
	<polygon fill="#00CCFF" points="628.884,191.413 628.884,99.207 628.884,98.707 628.384,98.707 622.874,98.707 622.374,98.707 
		622.374,99.207 622.374,197.561 622.374,198.061 622.874,198.061 667.072,198.061 667.572,198.061 667.572,197.561 
		667.572,191.913 667.572,191.413 667.072,191.413 	"/>
	<polygon fill="#00CCFF" points="715.067,140.169 715.067,115.736 715.067,115.236 714.567,115.236 708.92,115.236 708.42,115.236 
		708.42,115.736 708.42,140.169 694.206,140.169 693.706,140.169 693.706,140.669 693.706,146.317 693.706,146.817 694.206,146.817 
		708.42,146.817 708.42,197.559 708.42,198.059 708.92,198.059 714.567,198.059 715.067,198.059 715.067,197.559 715.067,146.817 
		735.792,146.817 736.292,146.817 736.292,146.317 736.292,140.669 736.292,140.169 735.792,140.169 	"/>
	<polygon fill="#00CCFF" points="676.872,140.17 676.372,140.17 676.372,140.67 676.372,197.561 676.372,198.061 676.872,198.061 
		682.519,198.061 683.019,198.061 683.019,197.561 683.019,140.67 683.019,140.17 682.519,140.17 	"/>
	<path fill="#00CCFF" d="M679.765,120.884h-0.045l-0.045,0.008c-3.288,0.599-4.956,2.294-4.956,5.039
		c0.1,1.526,0.612,2.746,1.524,3.659l0.025,0.025l0.028,0.021c1.186,0.889,2.352,1.34,3.468,1.34c3.301,0,5.046-1.745,5.046-5.046
		v-0.06l-0.014-0.058C684.003,122.542,682.311,120.884,679.765,120.884z"/>
	<path fill="#00CCFF" d="M848.59,146.371c-3.129-1.885-6.9-3.818-11.212-5.745c-6.818-3.09-11.417-5.571-13.666-7.372
		c-3.893-3.361-5.874-7.358-5.874-11.87c0-5.053,1.886-9.188,5.605-12.289c3.475-2.94,7.908-4.43,13.18-4.43
		c5.019,0,9.146,0.994,12.27,2.955c2.499,1.43,4.663,3.643,6.449,6.586l0.227,0.374l0.401-0.174l5.373-2.342l0.503-0.22
		l-0.266-0.481c-4.851-8.763-13.247-13.206-24.958-13.206c-7.074,0-13.118,2.174-17.964,6.461c-4.954,4.205-7.47,9.848-7.47,16.766
		c0,6.916,2.468,12.559,7.336,16.77c2.861,2.587,8.281,5.675,16.102,9.171c4.096,1.822,7.513,3.484,10.156,4.94
		c2.608,1.44,4.568,2.761,5.824,3.925c4.741,4.204,7.141,9.547,7.141,15.887c0,6.704-2.027,11.86-6.025,15.326
		c-3.927,3.392-9.425,5.111-16.341,5.111c-12.258,0-19.76-5.647-22.935-17.264l-0.141-0.514l-0.503,0.172l-5.647,1.929l-0.457,0.156
		l0.14,0.462c4.365,14.404,14.305,21.707,29.543,21.707c4.899,0,9.22-0.659,12.842-1.959c10.734-4.012,16.174-12.465,16.175-25.127
		c0-7.907-2.738-14.608-8.14-19.917C854.318,150.219,851.737,148.271,848.59,146.371z"/>
	<path fill="#00CCFF" d="M1058.046,147.191c-5.577-5.299-12.737-7.987-21.28-7.987c-8.638,0-15.895,2.876-21.567,8.549
		c-5.581,5.582-8.411,12.792-8.411,21.43c0,8.55,2.876,15.759,8.549,21.429c5.579,5.672,12.79,8.55,21.429,8.55
		c3.612,0,6.909-0.472,9.797-1.401c7.531-2.416,13.189-7.133,16.818-14.018l0.246-0.468l-0.479-0.22l-5.098-2.342l-0.402-0.185
		l-0.232,0.376c-3.05,4.935-6.54,8.251-10.373,9.858c-3.042,1.253-6.501,1.889-10.276,1.889c-7.354,0-13.21-2.264-17.405-6.729
		c-3.933-4.282-5.972-10.162-6.061-17.479h52.809h0.5v-0.5C1066.607,159.483,1063.727,152.501,1058.046,147.191z M1014.312,162.07
		c3.667-10.854,11.218-16.356,22.453-16.356c5.466,0,10.373,1.544,14.584,4.589c4.201,3.003,6.827,6.96,7.814,11.767H1014.312z"/>
	<path fill="#00CCFF" d="M1130.708,95.125h-5.647h-0.5v0.5v54.052c-6.246-6.858-13.857-10.334-22.643-10.334
		c-8.364,0-15.528,2.923-21.291,8.688c-5.673,5.673-8.55,12.79-8.55,21.153c0,8.367,2.923,15.53,8.688,21.292
		c5.671,5.673,12.788,8.55,21.153,8.55c9.029,0,16.64-3.461,22.643-10.293v8.828v0.5h0.5h5.647h0.5v-0.5V95.625v-0.5H1130.708z
		 M1118.37,185.773c-4.472,4.473-10.007,6.74-16.452,6.74c-6.353,0-11.888-2.314-16.451-6.878
		c-4.564-4.565-6.879-10.101-6.879-16.452c0-6.444,2.314-12.026,6.879-16.59c4.473-4.473,10.008-6.741,16.451-6.741
		c6.354,0,11.889,2.314,16.452,6.878c4.564,4.565,6.879,10.101,6.879,16.452C1125.249,175.628,1122.935,181.21,1118.37,185.773z"/>
	<path fill="#00CCFF" d="M903.84,139.344c-9.367,0-17.069,3.577-22.917,10.638v-9.311v-0.5h-0.5h-5.646h-0.5v0.5v83.614v0.5h0.5
		h5.646h0.5v-0.5v-35.942c6.089,7.09,13.793,10.683,22.917,10.683c8.364,0,15.527-2.923,21.292-8.688
		c5.673-5.674,8.549-12.79,8.549-21.152s-2.923-15.526-8.687-21.292C919.319,142.22,912.202,139.344,903.84,139.344z
		 M920.293,185.773c-4.473,4.473-10.008,6.74-16.453,6.74c-6.353,0-11.888-2.314-16.451-6.878
		c-4.564-4.565-6.879-10.101-6.879-16.452c0-6.444,2.314-12.026,6.879-16.59c4.473-4.473,10.008-6.741,16.451-6.741
		c6.353,0,11.889,2.314,16.453,6.878c4.563,4.565,6.878,10.102,6.878,16.452C927.171,175.628,924.856,181.209,920.293,185.773z"/>
	<path fill="#00CCFF" d="M988.623,147.191c-5.577-5.299-12.737-7.987-21.28-7.987c-8.638,0-15.895,2.876-21.567,8.549
		c-5.581,5.582-8.411,12.792-8.411,21.43c0,8.549,2.876,15.759,8.548,21.429c5.58,5.672,12.791,8.55,21.43,8.55
		c3.613,0,6.909-0.472,9.797-1.401c7.531-2.416,13.189-7.133,16.818-14.018l0.246-0.468l-0.479-0.22l-5.098-2.342l-0.402-0.185
		l-0.231,0.376c-3.051,4.935-6.541,8.252-10.375,9.858c-3.042,1.253-6.5,1.889-10.275,1.889c-7.354,0-13.21-2.264-17.405-6.729
		c-3.933-4.282-5.972-10.162-6.061-17.479h52.808h0.5v-0.5C997.184,159.482,994.304,152.501,988.623,147.191z M944.889,162.07
		c3.667-10.854,11.218-16.356,22.453-16.356c5.466,0,10.373,1.544,14.584,4.589c4.201,3.003,6.827,6.96,7.814,11.767H944.889z"/>
	<path fill="#00CCFF" d="M791.592,147.192c-5.577-5.299-12.737-7.987-21.279-7.987c-8.639,0-15.896,2.876-21.568,8.549
		c-5.581,5.582-8.411,12.792-8.411,21.429c0,8.549,2.876,15.758,8.549,21.428c5.58,5.672,12.791,8.55,21.429,8.55
		c3.61,0,6.907-0.472,9.797-1.402c7.533-2.417,13.192-7.133,16.819-14.017l0.246-0.468l-0.479-0.22l-5.099-2.342l-0.401-0.185
		l-0.232,0.376c-3.053,4.937-6.543,8.253-10.374,9.857c-3.04,1.253-6.499,1.889-10.276,1.889c-7.355,0-13.212-2.264-17.405-6.729
		c-3.933-4.28-5.972-10.16-6.061-17.478h52.809h0.5v-0.5C800.153,159.484,797.272,152.502,791.592,147.192z M747.857,162.07
		c3.667-10.854,11.218-16.356,22.453-16.356c5.465,0,10.371,1.544,14.584,4.589c4.201,3.004,6.828,6.96,7.815,11.767H747.857z"/>
</g>
</svg>
