<?xml version="1.0" encoding="utf-8"?>
<!-- Generator: Adobe Illustrator 16.0.0, SVG Export Plug-In . SVG Version: 6.00 Build 0)  -->
<!DOCTYPE svg PUBLIC "-//W3C//DTD SVG 1.1//EN" "http://www.w3.org/Graphics/SVG/1.1/DTD/svg11.dtd">
<svg version="1.1" id="Layer_1" xmlns="http://www.w3.org/2000/svg" xmlns:xlink="http://www.w3.org/1999/xlink" x="0px" y="0px"
	 width="800px" height="800px" viewBox="0 0 800 800" enable-background="new 0 0 800 800" xml:space="preserve">
<g>
	<path fill="#75D1DF" d="M649.209,216.488c-0.911-1.23-2.31-1.985-3.803-2.104c-1.505-0.123-2.981,0.436-4.072,1.493l-24.581,24.499
		c-1.792,1.796-2.014,4.635-0.57,6.702c31.701,44.813,48.497,97.33,48.497,151.926c0,145.896-118.908,264.637-265.075,264.637
		c-10.136,0-20.685-0.738-33.129-2.28c-0.775-0.115-4.089-0.624-6.197-0.964c-10.431-1.6-20.04-3.589-29.408-6.083
		c0,0-1.484-0.377-1.801-0.483c-0.094-0.017-0.168-0.046-0.271-0.091c-11.816-3.322-23.338-7.432-34.289-12.23
		c-10.931-4.721-21.89-10.479-32.669-17.178L583.76,454.088c10.229-5.423,16.46-14.959,16.645-25.512
		c0.213-10.537-5.623-20.315-15.66-26.119l-110.558-63.988l163.591-163.595c11.768-11.734,10.828-22.305,7.998-29.039
		c-3.384-8.326-12.165-14.15-21.349-14.15c-4.938,0-9.52,1.32-15.319,4.43L216.358,343.801
		c-10.274,5.414-16.521,14.983-16.714,25.627c-0.155,10.59,5.767,20.318,15.815,26.036l110.751,63.73L206.519,578.857
		c-6.66-7.223-12.961-14.774-18.76-22.571c-24.445-32.977-40.52-69.415-47.747-108.281c-0.103-0.558-0.2-1.124-0.262-1.678
		c-0.021-0.11-0.029-0.217-0.054-0.356l-0.156-0.796c-1.091-6.406-2.284-13.851-2.985-21.274c-0.164-1.723-0.222-3.552-0.263-5.291
		c0-0.045,0-0.078-0.017-0.123l-0.386-6.727c-0.254-3.811-0.537-8.117-0.537-12.506c0-18.075,1.797-36.036,5.365-53.369
		c1.678-8.113,3.729-16.111,6.123-23.765c0.091-0.271,0.148-0.476,0.197-0.755c0.024-0.144,0.062-0.41,0.123-0.595
		c0,0,0-0.021,0.008-0.028c34.617-111.497,136.233-186.408,252.854-186.408c16.041,0,32.492,1.858,51.77,5.857l2.338,0.5
		c6.046,1.264,12.78,3.002,20.558,5.278c4.13,1.202,8.269,2.695,11.91,4.004l3.445,1.234c3.154,1.087,6.477,2.239,9.475,3.486
		c0.05,0.012,0.095,0.045,0.156,0.062c0.431,0.168,0.8,0.34,1.247,0.537l0.168,0.09c1.46,0.677,3.171,0.632,4.606-0.139l38.723-20.5
		c1.689-0.886,2.752-2.662,2.769-4.598c0-1.924-1.079-3.675-2.769-4.573c-44.351-23.56-94.299-35.995-144.396-35.995
		c-170.621,0-309.43,138.788-309.43,309.426c0,69.132,22.702,134.777,65.657,189.824c5.669,7.26,11.928,14.516,18.63,21.656
		l-12.625,12.646c-11.706,11.628-10.836,22.164-8.039,28.944c3.466,8.363,12.276,14.199,21.427,14.199
		c4.836,0,9.548-1.354,15.266-4.384l26.25-13.934c8.658,6.366,17.383,12.165,25.996,17.256
		c47.8,28.264,102.051,43.205,156.868,43.205c170.588,0,309.385-138.797,309.385-309.413
		C709.407,333.038,688.612,269.924,649.209,216.488z"/>
	<g>
		<path fill="#FFD633" d="M175.634,647.521c-1.525,0-3.552-1.259-4.105-2.584c-0.435-1.059-1.345-3.273,3.934-8.519L344.249,467.66
			c2.962-2.953,4.401-7.215,3.864-11.357c-0.558-4.131-3.064-7.871-6.678-9.938l-116.632-67.102
			c-4.077-2.346-6.477-5.923-6.432-9.577c0.062-3.626,2.584-7.107,6.739-9.302L617.86,152.685c3.745-1.993,5.476-2.248,6.6-2.248
			c1.546,0,3.429,1.193,3.966,2.49c0.525,1.226,1.448,3.408-3.859,8.69L456.14,330.053c-2.961,2.937-4.393,7.169-3.855,11.315
			c0.542,4.147,3.031,7.863,6.628,9.946l116.436,67.373c4.016,2.329,6.382,5.873,6.3,9.49c-0.062,3.691-2.563,7.183-6.669,9.381
			L182.164,645.323C178.448,647.309,176.726,647.521,175.634,647.521z"/>
	</g>
</g>
</svg>
